<mxfile host="app.diagrams.net" agent="Mozilla/5.0 (Windows NT 10.0; Win64; x64) AppleWebKit/537.36 (KHTML, like Gecko) Chrome/129.0.0.0 Safari/537.36" version="24.7.16">
  <diagram id="kgpKYQtTHZ0yAKxKKP6v" name="Page-1">
    <mxGraphModel dx="1302" dy="1773" grid="1" gridSize="10" guides="1" tooltips="1" connect="1" arrows="1" fold="1" page="1" pageScale="1" pageWidth="850" pageHeight="1100" math="0" shadow="0">
      <root>
        <mxCell id="0" />
        <mxCell id="1" parent="0" />
        <mxCell id="1lPwbi4zcWdi98tY-m_--53" value="" style="shape=table;startSize=0;container=1;collapsible=0;childLayout=tableLayout;" vertex="1" parent="1">
          <mxGeometry x="10" y="-20" width="810" height="1000" as="geometry" />
        </mxCell>
        <mxCell id="1lPwbi4zcWdi98tY-m_--58" style="shape=tableRow;horizontal=0;startSize=0;swimlaneHead=0;swimlaneBody=0;strokeColor=inherit;top=0;left=0;bottom=0;right=0;collapsible=0;dropTarget=0;fillColor=none;points=[[0,0.5],[1,0.5]];portConstraint=eastwest;" vertex="1" parent="1lPwbi4zcWdi98tY-m_--53">
          <mxGeometry width="810" height="147" as="geometry" />
        </mxCell>
        <mxCell id="1lPwbi4zcWdi98tY-m_--59" value="Escritor" style="shape=partialRectangle;html=1;whiteSpace=wrap;connectable=0;strokeColor=inherit;overflow=hidden;fillColor=none;top=0;left=0;bottom=0;right=0;pointerEvents=1;" vertex="1" parent="1lPwbi4zcWdi98tY-m_--58">
          <mxGeometry width="270" height="147" as="geometry">
            <mxRectangle width="270" height="147" as="alternateBounds" />
          </mxGeometry>
        </mxCell>
        <mxCell id="1lPwbi4zcWdi98tY-m_--60" value="Editor" style="shape=partialRectangle;html=1;whiteSpace=wrap;connectable=0;strokeColor=inherit;overflow=hidden;fillColor=none;top=0;left=0;bottom=0;right=0;pointerEvents=1;" vertex="1" parent="1lPwbi4zcWdi98tY-m_--58">
          <mxGeometry x="270" width="270" height="147" as="geometry">
            <mxRectangle width="270" height="147" as="alternateBounds" />
          </mxGeometry>
        </mxCell>
        <mxCell id="1lPwbi4zcWdi98tY-m_--61" value="Revisor" style="shape=partialRectangle;html=1;whiteSpace=wrap;connectable=0;strokeColor=inherit;overflow=hidden;fillColor=none;top=0;left=0;bottom=0;right=0;pointerEvents=1;" vertex="1" parent="1lPwbi4zcWdi98tY-m_--58">
          <mxGeometry x="540" width="270" height="147" as="geometry">
            <mxRectangle width="270" height="147" as="alternateBounds" />
          </mxGeometry>
        </mxCell>
        <mxCell id="1lPwbi4zcWdi98tY-m_--54" value="" style="shape=tableRow;horizontal=0;startSize=0;swimlaneHead=0;swimlaneBody=0;strokeColor=inherit;top=0;left=0;bottom=0;right=0;collapsible=0;dropTarget=0;fillColor=none;points=[[0,0.5],[1,0.5]];portConstraint=eastwest;" vertex="1" parent="1lPwbi4zcWdi98tY-m_--53">
          <mxGeometry y="147" width="810" height="853" as="geometry" />
        </mxCell>
        <mxCell id="1lPwbi4zcWdi98tY-m_--55" value="" style="shape=partialRectangle;html=1;whiteSpace=wrap;connectable=0;strokeColor=inherit;overflow=hidden;fillColor=none;top=0;left=0;bottom=0;right=0;pointerEvents=1;" vertex="1" parent="1lPwbi4zcWdi98tY-m_--54">
          <mxGeometry width="270" height="853" as="geometry">
            <mxRectangle width="270" height="853" as="alternateBounds" />
          </mxGeometry>
        </mxCell>
        <mxCell id="1lPwbi4zcWdi98tY-m_--56" value="" style="shape=partialRectangle;html=1;whiteSpace=wrap;connectable=0;strokeColor=inherit;overflow=hidden;fillColor=none;top=0;left=0;bottom=0;right=0;pointerEvents=1;" vertex="1" parent="1lPwbi4zcWdi98tY-m_--54">
          <mxGeometry x="270" width="270" height="853" as="geometry">
            <mxRectangle width="270" height="853" as="alternateBounds" />
          </mxGeometry>
        </mxCell>
        <mxCell id="1lPwbi4zcWdi98tY-m_--57" value="" style="shape=partialRectangle;html=1;whiteSpace=wrap;connectable=0;strokeColor=inherit;overflow=hidden;fillColor=none;top=0;left=0;bottom=0;right=0;pointerEvents=1;" vertex="1" parent="1lPwbi4zcWdi98tY-m_--54">
          <mxGeometry x="540" width="270" height="853" as="geometry">
            <mxRectangle width="270" height="853" as="alternateBounds" />
          </mxGeometry>
        </mxCell>
        <mxCell id="1lPwbi4zcWdi98tY-m_--67" style="edgeStyle=none;curved=1;rounded=0;orthogonalLoop=1;jettySize=auto;html=1;fontSize=12;startSize=8;endSize=8;exitX=0.5;exitY=1;exitDx=0;exitDy=0;" edge="1" parent="1" source="1lPwbi4zcWdi98tY-m_--68" target="1lPwbi4zcWdi98tY-m_--66">
          <mxGeometry relative="1" as="geometry">
            <mxPoint x="100" y="120" as="sourcePoint" />
          </mxGeometry>
        </mxCell>
        <mxCell id="1lPwbi4zcWdi98tY-m_--66" value="Elabora a proposta" style="rounded=1;arcSize=10;whiteSpace=wrap;html=1;align=center;" vertex="1" parent="1">
          <mxGeometry x="100" y="220" width="80" height="40" as="geometry" />
        </mxCell>
        <mxCell id="1lPwbi4zcWdi98tY-m_--68" value="" style="ellipse;whiteSpace=wrap;html=1;gradientColor=none;fillColor=#000000;" vertex="1" parent="1">
          <mxGeometry x="130" y="140" width="20" height="20" as="geometry" />
        </mxCell>
        <mxCell id="1lPwbi4zcWdi98tY-m_--73" value="Entrega a proposta" style="rounded=1;arcSize=10;whiteSpace=wrap;html=1;align=center;" vertex="1" parent="1">
          <mxGeometry x="140" y="300" width="80" height="40" as="geometry" />
        </mxCell>
        <mxCell id="1lPwbi4zcWdi98tY-m_--74" value="Analisa a proposta" style="rounded=1;arcSize=10;whiteSpace=wrap;html=1;align=center;" vertex="1" parent="1">
          <mxGeometry x="360" y="300" width="80" height="40" as="geometry" />
        </mxCell>
        <mxCell id="1lPwbi4zcWdi98tY-m_--75" value="Devolve a proposta" style="rounded=1;arcSize=10;whiteSpace=wrap;html=1;align=center;" vertex="1" parent="1">
          <mxGeometry x="300" y="380" width="80" height="40" as="geometry" />
        </mxCell>
        <mxCell id="1lPwbi4zcWdi98tY-m_--76" value="Escreve o livro" style="rounded=1;arcSize=10;whiteSpace=wrap;html=1;align=center;" vertex="1" parent="1">
          <mxGeometry x="150" y="400" width="80" height="40" as="geometry" />
        </mxCell>
        <mxCell id="1lPwbi4zcWdi98tY-m_--77" value="Envia o livro para o Editor" style="rounded=1;arcSize=10;whiteSpace=wrap;html=1;align=center;" vertex="1" parent="1">
          <mxGeometry x="140" y="490" width="80" height="40" as="geometry" />
        </mxCell>
        <mxCell id="1lPwbi4zcWdi98tY-m_--78" value="Envia o livro para o Revisor" style="rounded=1;arcSize=10;whiteSpace=wrap;html=1;align=center;" vertex="1" parent="1">
          <mxGeometry x="335" y="440" width="90" height="40" as="geometry" />
        </mxCell>
        <mxCell id="1lPwbi4zcWdi98tY-m_--79" value="Revisa o livro" style="rounded=1;arcSize=10;whiteSpace=wrap;html=1;align=center;" vertex="1" parent="1">
          <mxGeometry x="590" y="450" width="90" height="40" as="geometry" />
        </mxCell>
        <mxCell id="1lPwbi4zcWdi98tY-m_--80" value="Envia o livro para o Revisor" style="rounded=1;arcSize=10;whiteSpace=wrap;html=1;align=center;" vertex="1" parent="1">
          <mxGeometry x="355" y="540" width="90" height="40" as="geometry" />
        </mxCell>
        <mxCell id="1lPwbi4zcWdi98tY-m_--81" value="Envia o livro para o Revisor" style="rounded=1;arcSize=10;whiteSpace=wrap;html=1;align=center;" vertex="1" parent="1">
          <mxGeometry x="390" y="680" width="90" height="40" as="geometry" />
        </mxCell>
        <mxCell id="1lPwbi4zcWdi98tY-m_--82" value="Envia o livro para o Revisor" style="rounded=1;arcSize=10;whiteSpace=wrap;html=1;align=center;" vertex="1" parent="1">
          <mxGeometry x="70" y="600" width="90" height="40" as="geometry" />
        </mxCell>
        <mxCell id="1lPwbi4zcWdi98tY-m_--83" value="Envia o livro para o Revisor" style="rounded=1;arcSize=10;whiteSpace=wrap;html=1;align=center;" vertex="1" parent="1">
          <mxGeometry x="460" y="600" width="90" height="40" as="geometry" />
        </mxCell>
        <mxCell id="1lPwbi4zcWdi98tY-m_--84" value="Envia o livro para o Revisor" style="rounded=1;arcSize=10;whiteSpace=wrap;html=1;align=center;" vertex="1" parent="1">
          <mxGeometry x="145" y="720" width="90" height="40" as="geometry" />
        </mxCell>
        <mxCell id="1lPwbi4zcWdi98tY-m_--85" value="Envia o livro para o Revisor" style="rounded=1;arcSize=10;whiteSpace=wrap;html=1;align=center;" vertex="1" parent="1">
          <mxGeometry x="630" y="560" width="90" height="40" as="geometry" />
        </mxCell>
        <mxCell id="1lPwbi4zcWdi98tY-m_--86" value="Envia o livro para o Revisor" style="rounded=1;arcSize=10;whiteSpace=wrap;html=1;align=center;" vertex="1" parent="1">
          <mxGeometry x="580" y="750" width="90" height="40" as="geometry" />
        </mxCell>
        <mxCell id="1lPwbi4zcWdi98tY-m_--87" value="Envia o livro para o Revisor" style="rounded=1;arcSize=10;whiteSpace=wrap;html=1;align=center;" vertex="1" parent="1">
          <mxGeometry x="640" y="670" width="90" height="40" as="geometry" />
        </mxCell>
      </root>
    </mxGraphModel>
  </diagram>
</mxfile>
